# xmcd CD database file
#
# Track frame offsets:
#	150
#	12788
#	31655
#	43027
#	50925
#	58297
#	72065
#	81185
#	92135
#	110020
#	149867
#
# Disc length: 2033 seconds
#
# Revision: 2
# Processed by: cddbd v1.5.2PL0 Copyright (c) Steve Scherf et al.
# Submitted via: CDex 1.51
#
DISCID=9f07ef0b
DTITLE=CARAS - Irlanda
DYEAR=2005
DGENRE=Ethnic
TTITLE0=Brian Roebuck - Rock Road to Dublin
TTITLE1=Gallo - St. Patrick's Party
TTITLE2=Kings River Band - Joe Bane's Schottice
TTITLE3=Peter Ratzenbeck - Bonny George Campell
TTITLE4=Mawaca - The Hiring Fairs of Ulster
TTITLE5=Brian Roebuck - As Is Roved Out
TTITLE6=Peter Ratzenbeck - Planxty George Brabazon
TTITLE7=Dances of Ireland - The Priest's Leap
TTITLE8=Corciolli - Dança da Fertilidade
TTITLE9=Kings River Band - The Nobleman's Wedding
TTITLE10=Multimedia Track
EXTD=YEAR: 2005
EXTT0=
EXTT1=
EXTT2=
EXTT3=
EXTT4=
EXTT5=
EXTT6=
EXTT7=
EXTT8=
EXTT9=
EXTT10=
PLAYORDER=
